<?xml version="1.0" encoding="utf-8"?>
<!-- Generator: Adobe Illustrator 16.0.4, SVG Export Plug-In . SVG Version: 6.00 Build 0)  -->
<!DOCTYPE svg PUBLIC "-//W3C//DTD SVG 1.1//EN" "http://www.w3.org/Graphics/SVG/1.1/DTD/svg11.dtd">
<svg version="1.1" id="Layer_1" xmlns="http://www.w3.org/2000/svg" xmlns:xlink="http://www.w3.org/1999/xlink" x="0px" y="0px"
	 width="626px" height="339px" viewBox="0 0 626 339" enable-background="new 0 0 626 339" xml:space="preserve">
<g>
	<g>
		<path fill="#27AAE1" d="M309.82-1030.295c-19.659-41.998,4.335-92.086,45.275-110.495c3.524-1.585,0.47-6.754-3.028-5.181
			c-44.177,19.865-68.384,73.934-47.427,118.704C306.279-1023.765,311.45-1026.812,309.82-1030.295L309.82-1030.295z"/>
	</g>
</g>
<g>
	<g>
		<path fill="#27AAE1" d="M326.839-1057.875c-3.482-23.624,6.636-47.35,26.016-61.271c19.496-14.004,45.815-15.145,66.825-3.947
			c21.153,11.273,33.593,34.128,33.082,57.851c-0.506,23.51-15.169,44.663-35.974,54.962c-18.073,8.947-39.93,7.889-57.549-1.501
			C341.73-1021.113,330.113-1038.495,326.839-1057.875c-0.644-3.809-6.425-2.188-5.786,1.595
			c3.715,21.989,17.633,40.812,37.509,50.902c19.979,10.142,43.952,9.323,63.669-0.948c19.367-10.089,32.699-29.871,35.852-51.314
			c3.254-22.133-4.876-44.627-20.89-60.077c-21.428-20.673-54.387-24.437-80.504-10.831c-26.226,13.66-39.876,43.492-35.635,72.269
			C321.616-1052.463,327.396-1054.092,326.839-1057.875z"/>
	</g>
</g>
<g>
	<g>
		<path fill="#27AAE1" d="M424.869-993.854c-40.228,20.482-93.915,6.777-114.219-34.709c-1.701-3.476-6.875-0.434-5.181,3.027
			c21.788,44.519,79.477,58.732,122.428,36.861C431.346-990.43,428.309-995.605,424.869-993.854L424.869-993.854z"/>
	</g>
</g>
<g>
	<g>
		<g>
			<path fill="#27AAE1" d="M1150.802-896.695c14.586,40.824-5.862,89.649-48.023,103.968c-3.035,1.031-1.732,5.861,1.33,4.822
				c44.591-15.145,67.058-66.618,51.516-110.118C1154.547-901.037,1149.715-899.738,1150.802-896.695L1150.802-896.695z"/>
		</g>
	</g>
	<g>
		<g>
			<path fill="#27AAE1" d="M1046.04-946.234c41.284-16.22,88.758,6.959,104.101,47.736c1.125,2.988,5.96,1.695,4.822-1.328
				c-16.224-43.117-66.264-68.511-110.253-51.23C1041.745-949.891,1043.035-945.055,1046.04-946.234L1046.04-946.234z"/>
		</g>
	</g>
</g>
<g>
	<g>
		<g>
			<path fill="#27AAE1" d="M1055.81-751.669c9.525,26.992-3.665,59.451-31.72,68.9c-3.038,1.023-1.735,5.854,1.329,4.822
				c30.494-10.273,45.682-45.385,35.212-75.053C1059.565-756.019,1054.733-754.718,1055.81-751.669L1055.81-751.669z"/>
		</g>
	</g>
	<g>
		<g>
			<path fill="#27AAE1" d="M986.374-784.409c27.389-10.781,58.719,4.547,68.99,31.527c1.136,2.982,5.971,1.689,4.822-1.33
				c-11.16-29.312-45.043-46.866-75.143-35.019C982.08-788.063,983.37-783.227,986.374-784.409L986.374-784.409z"/>
		</g>
	</g>
</g>
<g>
	<g>
		<path fill="#27AAE1" d="M359.033-1123.395c17.43,6.803,34.8,20.438,46.109,35.797c17.514,23.785,18.441,52.947,9.046,80.211
			c-1.264,3.668,4.533,5.23,5.786,1.596c9.813-28.48,8.566-58.695-8.952-83.858c-12.037-17.29-30.702-31.845-50.395-39.53
			C357.018-1130.588,355.47-1124.785,359.033-1123.395L359.033-1123.395z"/>
	</g>
</g>
<g>
	<g>
		<path fill="#27AAE1" d="M357.938-1128.086c-7.127,22.568-6.601,49.307,1.879,71.339c9.954,25.859,31.953,42.854,57.467,52.05
			c3.649,1.315,5.206-4.484,1.595-5.785c-24.387-8.79-44.896-25.167-54.06-49.938c-7.551-20.412-7.659-45.287-1.095-66.07
			C364.893-1130.19,359.099-1131.762,357.938-1128.086L357.938-1128.086z"/>
	</g>
</g>
<g>
	<g>
		<path fill="#27AAE1" d="M1098.538-1062.449c-5.006,19.284-16.662,37.963-31.258,51.324c-21.203,19.41-49.765,23.5-77.164,17.546
			c-3.771-0.819-5.375,4.964-1.594,5.786c28.645,6.225,57.396,2.13,80.385-16.816c16.799-13.845,29.933-35.119,35.416-56.245
			C1105.297-1064.603,1099.509-1066.192,1098.538-1062.449L1098.538-1062.449z"/>
	</g>
</g>
<path fill="none" stroke="#27AAE1" stroke-miterlimit="10" d="M323.123-1067.438"/>
<g>
	<g>
		<path fill="#27AAE1" d="M354.348-1011.361c6.72-8.147,15.783-14.704,24.633-20.285c22.844-14.404,49.512-21.518,76.373-22.502
			c3.214-0.117,3.226-5.117,0-5c-27.512,1.008-54.484,8.262-78.049,22.659c-9.506,5.808-19.335,12.916-26.492,21.593
			C348.778-1012.431,352.294-1008.872,354.348-1011.361L354.348-1011.361z"/>
	</g>
</g>
<g>
	<g>
		<path fill="#27AAE1" d="M428.558-1118.219c-6.72,8.146-15.783,14.703-24.633,20.284c-22.844,14.405-49.512,21.519-76.373,22.502
			c-3.214,0.118-3.226,5.118,0,5c27.512-1.007,54.484-8.261,78.049-22.659c9.506-5.808,19.335-12.916,26.492-21.592
			C434.127-1117.15,430.611-1120.709,428.558-1118.219L428.558-1118.219z"/>
	</g>
</g>
<rect x="978.925" y="-848.113" fill="none" stroke="#27AAE1" stroke-width="1.2" stroke-miterlimit="10" width="159.351" height="169.333"/>
<path fill="#27AAE1" d="M387.169-965.557c0,2.854-1.842,5.167-4.115,5.167l0,0c-2.272,0-4.115-2.313-4.115-5.167v-11.764
	c0-2.854,1.842-5.166,4.115-5.166l0,0c2.273,0,4.115,2.312,4.115,5.166V-965.557z"/>
<path fill="#27AAE1" d="M462.021-940.903c-0.289,0-0.594,0.015-0.895,0.052l-93.66,12.145l-54.978-8.623v-12.943
	c0,0,54.892,8.591,54.978,8.602l94.555-12.299l1.887-0.358c1.418-0.447,2.387-1.325,2.43-2.357c0.043-1.277-1.328-2.397-3.297-2.709
	l-59.267-9.29c-0.616-0.096-1.285-0.109-1.907-0.029l-94.582,12.263c-0.139,0.021-0.257,0.051-0.386,0.073
	c-0.102,0.018-0.204,0.029-0.3,0.051c-0.22,0.055-0.428,0.121-0.621,0.19c-0.032,0.007-0.064,0.015-0.091,0.029
	c-0.23,0.08-0.444,0.183-0.637,0.293c-0.064,0.036-0.107,0.073-0.171,0.109c-0.123,0.077-0.256,0.161-0.363,0.253
	c-0.064,0.048-0.124,0.106-0.182,0.157c-0.097,0.088-0.177,0.176-0.257,0.264c-0.048,0.062-0.09,0.124-0.128,0.187
	c-0.075,0.099-0.128,0.201-0.182,0.304c-0.016,0.04-0.043,0.073-0.054,0.11c-0.021,0.029-0.021,0.051-0.026,0.076
	c-0.032,0.106-0.054,0.216-0.07,0.322c-0.011,0.069-0.026,0.136-0.032,0.205c0,0.019-0.011,0.033-0.011,0.055v18.577
	c0,1.252,1.36,2.346,3.309,2.646l59.261,9.292c0.616,0.092,1.279,0.107,1.906,0.027l94.587-12.267
	c2.355-0.296,3.887-1.731,3.416-3.21c-0.277-0.86-1.178-1.537-2.344-1.899C463.908-940.606,462.928-940.954,462.021-940.903z"/>
<g>
	<path fill="#27AAE1" d="M463.908-924.469c1.418-0.439,2.387-1.32,2.43-2.354c0.043-1.277-1.328-2.396-3.297-2.713l-95.28,11.9
		c-0.616-0.1-1.29-0.105-1.911-0.029l-58.564-8.928c-0.139,0.021-0.257,0.051-0.386,0.074c-0.102,0.021-0.204,0.031-0.3,0.059
		c-0.22,0.051-0.428,0.113-0.621,0.189c-0.032,0.004-0.064,0.012-0.091,0.021c-0.23,0.088-0.444,0.184-0.637,0.297
		c-0.064,0.033-0.107,0.07-0.171,0.105c-0.123,0.082-0.256,0.162-0.363,0.254c-0.064,0.051-0.124,0.105-0.182,0.16
		c-0.097,0.088-0.177,0.172-0.257,0.26c-0.048,0.066-0.09,0.125-0.128,0.191c-0.075,0.094-0.128,0.193-0.182,0.303
		c-0.016,0.033-0.043,0.07-0.054,0.104c-0.021,0.033-0.021,0.055-0.026,0.08c-0.032,0.105-0.054,0.217-0.07,0.326
		c-0.011,0.066-0.026,0.131-0.032,0.197c0,0-0.011,0.043-0.011,0.062v18.576c0,1.252,1.36,2.342,3.309,2.646l19.977,3.141
		l0.027-5.662l-14.596-2.256v-12.947l55.096,8.32l94.437-12.012C462.021-924.102,463.402-924.277,463.908-924.469z M462.021-911.043
		c-0.289,0-0.594,0.023-0.895,0.055l-93.542,11.9l-11.143-1.479v5.607l9.901,1.566c0.621,0.096,1.279,0.104,1.906,0.023
		l94.587-12.264c2.361-0.293,3.887-1.73,3.416-3.213c-0.273-0.857-1.178-1.537-2.344-1.896
		C463.908-910.742,462.928-911.09,462.021-911.043z"/>
	<polygon fill="#27AAE1" points="332.632,-881.129 341.37,-884.541 350.108,-877.844 350.108,-906.219 332.632,-908.934 	"/>
</g>
<rect x="490.545" y="-1097.544" fill="none" width="516.187" height="158.736"/>
<text transform="matrix(1 0 0 1 490.5435 -1029.5034)"><tspan x="0" y="0" fill="#53AF48" font-family="'Avenir-Light'" font-size="90">education </tspan><tspan x="0" y="90" fill="#53AF48" font-family="'Avenir-Light'" font-size="90">allocation</tspan></text>
<g>
	<g>
		<path fill="#2A74AA" d="M303.327-477.564c-11.238-24.367,2.638-53.424,26.468-63.995c3.531-1.566,0.475-6.735-3.028-5.182
			c-27.086,12.016-41.134,45.072-28.62,72.204C299.765-471.026,304.936-474.077,303.327-477.564L303.327-477.564z"/>
	</g>
</g>
<g>
	<g>
		<path fill="#2A74AA" d="M313.563-493.664c-2.808-20.038,11.021-37.934,30.679-41.396c19.925-3.51,38.026,11.551,41.396,30.68
			c3.511,19.924-11.551,38.026-30.678,41.397C335.036-459.472,316.933-474.536,313.563-493.664
			c-0.671-3.806-6.453-2.188-5.786,1.596c3.892,22.084,24.259,37.503,46.581,35.174c22.129-2.31,38.351-22.187,37.612-44.099
			c-0.752-22.323-19.747-39.65-41.58-40.442c-22.425-0.813-40.756,17.248-43.056,38.899c-0.372,3.501-0.042,6.999,0.443,10.468
			C308.312-488.25,314.093-489.881,313.563-493.664z"/>
	</g>
</g>
<g>
	<g>
		<path fill="#2A74AA" d="M370.029-456.347c-23.457,11.955-54.306,3.769-66.209-20.188c-1.722-3.466-6.896-0.426-5.181,3.027
			c13.404,26.98,48.225,35.692,74.418,22.343C376.505-452.923,373.468-458.1,370.029-456.347L370.029-456.347z"/>
	</g>
</g>
<g>
	<g>
		<path fill="#2A74AA" d="M331.196-531.101c9.832,3.863,20.625,12.279,27.211,21.468c9.859,13.755,9.999,30.395,4.714,45.972
			c-1.246,3.675,4.55,5.238,5.786,1.596c5.847-17.24,5.135-35.307-5.32-50.596c-7.296-10.671-18.75-19.492-30.797-24.225
			C329.186-538.303,327.638-532.498,331.196-531.101L331.196-531.101z"/>
	</g>
</g>
<g>
	<g>
		<path fill="#2A74AA" d="M329.695-535.386c-4.314,13.782-3.96,29.987,1.267,43.416c6.093,15.656,19.437,25.772,34.85,31.405
			c3.643,1.331,5.198-4.469,1.595-5.785c-14.275-5.217-26.128-14.713-31.431-29.263c-4.306-11.816-4.253-26.172-0.495-38.178
			C336.64-537.493,330.847-539.064,329.695-535.386L329.695-535.386z"/>
	</g>
</g>
<path fill="none" stroke="#2A74AA" stroke-miterlimit="10" d="M310.181-499.021"/>
<g>
	<g>
		<path fill="#2A74AA" d="M329.453-464.981c13.915-16.808,38.395-24.295,59.305-25.129c3.213-0.128,3.226-5.129,0-5
			c-22.13,0.883-48.111,8.802-62.84,26.594C323.878-466.054,327.395-462.495,329.453-464.981L329.453-464.981z"/>
	</g>
</g>
<g>
	<g>
		<path fill="#2A74AA" d="M372.118-529.916c-13.916,16.807-38.395,24.295-59.305,25.129c-3.213,0.128-3.226,5.129,0,5
			c22.13-0.883,48.11-8.802,62.84-26.594C377.692-528.844,374.176-532.402,372.118-529.916L372.118-529.916z"/>
	</g>
</g>
<path fill="#972F20" d="M392.721-423.829c-0.171,0-0.353,0.009-0.531,0.03l-55.658,7.217l-32.67-5.124v-7.691
	c0,0,32.62,5.105,32.67,5.111l56.189-7.309l1.121-0.213c0.843-0.266,1.418-0.788,1.444-1.4c0.025-0.76-0.789-1.426-1.959-1.61
	l-35.219-5.521c-0.366-0.057-0.764-0.064-1.133-0.018l-56.205,7.287c-0.083,0.014-0.153,0.03-0.229,0.043
	c-0.061,0.011-0.121,0.019-0.178,0.031c-0.131,0.032-0.255,0.071-0.369,0.113c-0.019,0.004-0.039,0.008-0.055,0.017
	c-0.137,0.048-0.264,0.109-0.378,0.175c-0.038,0.021-0.063,0.043-0.102,0.064c-0.073,0.046-0.152,0.096-0.216,0.15
	c-0.038,0.028-0.073,0.063-0.108,0.094c-0.057,0.052-0.105,0.104-0.153,0.156c-0.029,0.037-0.053,0.073-0.076,0.11
	c-0.045,0.06-0.076,0.12-0.108,0.181c-0.009,0.024-0.025,0.044-0.032,0.065c-0.013,0.018-0.013,0.03-0.016,0.046
	c-0.02,0.063-0.032,0.128-0.042,0.191c-0.006,0.041-0.016,0.081-0.019,0.122c0,0.011-0.007,0.02-0.007,0.032v11.04
	c0,0.743,0.809,1.394,1.967,1.572l35.215,5.521c0.366,0.055,0.76,0.063,1.132,0.017l56.208-7.29c1.4-0.176,2.31-1.028,2.03-1.906
	c-0.165-0.512-0.7-0.914-1.393-1.129C393.842-423.652,393.259-423.859,392.721-423.829z"/>
<g>
	<path fill="#972F20" d="M392.652-413.409c0.843-0.262,1.418-0.784,1.444-1.398c0.025-0.759-0.789-1.425-1.959-1.612l-56.62,7.072
		c-0.366-0.06-0.767-0.063-1.136-0.018l-34.802-5.306c-0.083,0.013-0.153,0.03-0.229,0.044c-0.06,0.013-0.121,0.019-0.178,0.035
		c-0.131,0.03-0.254,0.067-0.369,0.112c-0.019,0.003-0.038,0.007-0.054,0.013c-0.137,0.053-0.264,0.109-0.379,0.177
		c-0.038,0.02-0.063,0.042-0.102,0.062c-0.073,0.049-0.152,0.097-0.216,0.15c-0.039,0.031-0.074,0.063-0.108,0.096
		c-0.058,0.052-0.105,0.103-0.153,0.154c-0.028,0.039-0.053,0.074-0.076,0.114c-0.044,0.056-0.076,0.114-0.108,0.18
		c-0.01,0.02-0.026,0.042-0.032,0.062c-0.013,0.02-0.013,0.032-0.016,0.047c-0.019,0.063-0.032,0.129-0.042,0.194
		c-0.006,0.039-0.015,0.078-0.019,0.117c0,0-0.006,0.025-0.006,0.037v11.039c0,0.744,0.808,1.392,1.966,1.572l11.871,1.867
		l0.016-3.365l-8.674-1.341v-7.693l32.74,4.944l56.119-7.139C391.531-413.191,392.352-413.296,392.652-413.409z M391.531-405.431
		c-0.172,0-0.353,0.014-0.532,0.032l-55.587,7.072l-6.622-0.879v3.332l5.883,0.931c0.369,0.058,0.761,0.062,1.133,0.015
		l56.208-7.288c1.403-0.174,2.31-1.028,2.03-1.909c-0.163-0.51-0.7-0.914-1.393-1.127
		C392.652-405.252,392.07-405.459,391.531-405.431z"/>
	<polygon fill="#8B5E3C" points="314.642,-387.654 319.834,-389.682 325.027,-385.702 325.027,-402.563 314.642,-404.178 	"/>
</g>
<path fill="none" stroke="#27AAE1" stroke-miterlimit="10" d="M453.797-495.252"/>
<g>
	<g>
		<g>
			<path fill="#8FD3CD" d="M513.898-452.145c-23.684,12.071-54.865,3.841-66.893-20.368c-1.435-2.888-5.747-0.354-4.317,2.523
				c13.279,26.727,47.768,35.396,73.733,22.163C519.295-449.291,516.764-453.604,513.898-452.145L513.898-452.145z"/>
		</g>
	</g>
	<g>
		<g>
			<path fill="#8FD3CD" d="M473.07-461.211c13.915-16.808,38.396-24.295,59.306-25.129c3.213-0.128,3.226-5.129,0-5
				c-22.13,0.883-48.111,8.802-62.841,26.594C467.496-462.283,471.012-458.725,473.07-461.211L473.07-461.211z"/>
		</g>
	</g>
	<g>
		<g>
			<g>
				<path fill="#8FD3CD" d="M446.512-473.542c-11.408-24.733,2.629-53.805,26.647-64.681c2.934-1.328,0.39-5.636-2.523-4.316
					c-26.722,12.1-40.918,44.467-28.441,71.521C443.544-468.093,447.853-470.635,446.512-473.542L446.512-473.542z"/>
			</g>
		</g>
		<g>
			<g>
				<path fill="#8FD3CD" d="M456.698-489.761c-2.844-20.29,11.074-38.496,31.029-42.011c20.177-3.555,38.59,11.609,42.012,31.028
					c3.556,20.176-11.61,38.59-31.028,42.012C478.534-455.175,460.119-470.343,456.698-489.761c-0.559-3.171-5.377-1.823-4.821,1.33
					c3.856,21.886,23.979,37.115,46.098,34.807c21.866-2.282,37.841-21.979,37.112-43.599c-0.743-22.046-19.523-39.16-41.08-39.942
					c-22.132-0.803-40.285,17.009-42.556,38.399c-0.367,3.455-0.054,6.911,0.426,10.335
					C452.322-485.249,457.14-486.608,456.698-489.761z"/>
			</g>
		</g>
		<g>
			<g>
				<path fill="#8FD3CD" d="M474.946-527.812c10.431,4.098,20.825,12.371,27.51,21.696c9.931,13.855,10.087,30.667,4.765,46.357
					c-1.039,3.062,3.792,4.365,4.821,1.33c5.809-17.126,5.117-35.022-5.269-50.211c-7.216-10.553-18.582-19.312-30.498-23.995
					C473.271-533.813,471.981-528.977,474.946-527.812L474.946-527.812z"/>
			</g>
		</g>
		<g>
			<g>
				<path fill="#8FD3CD" d="M473.795-531.482c-4.291,13.706-3.931,29.796,1.266,43.15c6.025,15.479,19.269,25.489,34.501,31.056
					c3.036,1.108,4.332-3.725,1.329-4.822c-14.453-5.28-26.414-14.884-31.781-29.61c-4.333-11.892-4.277-26.36-0.495-38.443
					C479.582-533.238,474.755-534.548,473.795-531.482L473.795-531.482z"/>
			</g>
		</g>
		<g>
			<g>
				<path fill="#8FD3CD" d="M515.735-526.146c-13.916,16.807-38.395,24.294-59.305,25.129c-3.213,0.128-3.226,5.129,0,5
					c22.13-0.883,48.11-8.802,62.84-26.594C521.31-525.073,517.793-528.632,515.735-526.146L515.735-526.146z"/>
			</g>
		</g>
	</g>
</g>
<path fill="#53B78F" d="M536.338-420.059c-0.172,0-0.353,0.008-0.531,0.03l-55.658,7.217l-32.67-5.124v-7.691
	c0,0,32.62,5.104,32.67,5.111l56.189-7.309l1.122-0.213c0.843-0.266,1.418-0.788,1.443-1.401c0.026-0.759-0.789-1.425-1.959-1.609
	l-35.219-5.521c-0.366-0.057-0.764-0.065-1.133-0.018l-56.205,7.287c-0.083,0.013-0.153,0.03-0.229,0.043
	c-0.061,0.011-0.121,0.019-0.178,0.031c-0.13,0.032-0.254,0.071-0.369,0.112c-0.019,0.005-0.038,0.009-0.054,0.018
	c-0.137,0.048-0.264,0.108-0.379,0.175c-0.038,0.021-0.063,0.043-0.102,0.064c-0.073,0.046-0.152,0.096-0.216,0.15
	c-0.038,0.028-0.073,0.063-0.108,0.093c-0.057,0.053-0.105,0.104-0.153,0.157c-0.028,0.037-0.054,0.073-0.076,0.11
	c-0.044,0.06-0.077,0.12-0.108,0.181c-0.009,0.024-0.025,0.044-0.032,0.065c-0.013,0.018-0.013,0.03-0.016,0.046
	c-0.02,0.063-0.032,0.128-0.042,0.191c-0.006,0.041-0.016,0.081-0.02,0.121c0,0.012-0.006,0.021-0.006,0.033v11.039
	c0,0.744,0.809,1.395,1.966,1.573l35.216,5.521c0.366,0.055,0.76,0.063,1.132,0.017l56.209-7.29c1.4-0.176,2.31-1.028,2.03-1.907
	c-0.165-0.511-0.7-0.914-1.393-1.129C537.459-419.883,536.876-420.089,536.338-420.059z"/>
<g>
	<path fill="#53B78F" d="M537.459-410.293c0.843-0.261,1.418-0.784,1.443-1.398c0.026-0.759-0.789-1.424-1.959-1.612l-56.62,7.071
		c-0.366-0.059-0.767-0.062-1.136-0.017l-34.801-5.306c-0.083,0.013-0.153,0.03-0.229,0.045c-0.061,0.013-0.121,0.019-0.178,0.034
		c-0.13,0.03-0.254,0.067-0.369,0.112c-0.019,0.003-0.038,0.008-0.054,0.014c-0.137,0.052-0.264,0.108-0.379,0.176
		c-0.038,0.02-0.063,0.042-0.102,0.062c-0.073,0.049-0.152,0.097-0.216,0.151c-0.038,0.03-0.073,0.062-0.108,0.095
		c-0.057,0.053-0.105,0.103-0.153,0.154c-0.028,0.04-0.054,0.075-0.076,0.114c-0.044,0.056-0.077,0.114-0.108,0.18
		c-0.009,0.02-0.025,0.042-0.032,0.062c-0.013,0.02-0.013,0.032-0.016,0.048c-0.02,0.062-0.032,0.129-0.042,0.193
		c-0.006,0.04-0.016,0.078-0.02,0.117c0,0-0.006,0.025-0.006,0.038v11.038c0,0.744,0.809,1.392,1.966,1.573l11.872,1.866
		l0.016-3.365l-8.673-1.34v-7.694l32.74,4.944l56.119-7.138C536.338-410.074,537.159-410.179,537.459-410.293z M536.338-402.314
		c-0.172,0-0.353,0.014-0.531,0.032l-55.587,7.071l-6.622-0.878v3.332l5.883,0.932c0.369,0.056,0.76,0.062,1.132,0.013l56.209-7.287
		c1.403-0.174,2.31-1.028,2.03-1.909c-0.162-0.509-0.7-0.913-1.393-1.127C537.459-402.136,536.876-402.342,536.338-402.314z"/>
	<polygon fill="#F6B0A2" points="459.449,-384.538 464.641,-386.566 469.833,-382.586 469.833,-399.448 459.449,-401.061 	"/>
</g>
<g>
	<g>
		<path fill="#27AAE1" d="M594.126-473.795c-11.288-24.475,2.706-53.276,26.467-63.995c3.522-1.589,0.47-6.759-3.027-5.182
			c-27.009,12.185-41.191,44.948-28.621,72.206C590.564-467.256,595.735-470.307,594.126-473.795L594.126-473.795z"/>
	</g>
</g>
<path fill="#8FD3CD" d="M491.857-434.709c0,1.695-1.095,3.07-2.446,3.07l0,0c-1.35,0-2.445-1.375-2.445-3.07v-6.991
	c0-1.695,1.095-3.069,2.445-3.069l0,0c1.351,0,2.446,1.374,2.446,3.069V-434.709z"/>
<path fill="none" stroke="#F19C30" stroke-miterlimit="10" d="M300.802-315.946"/>
<g>
	<g>
		<g>
			<path fill="#FBB040" d="M360.903-272.838c-23.684,12.07-54.865,3.84-66.893-20.369c-1.435-2.888-5.747-0.354-4.317,2.523
				c13.279,26.727,47.769,35.396,73.734,22.162C366.3-269.985,363.769-274.299,360.903-272.838L360.903-272.838z"/>
		</g>
	</g>
	<g>
		<g>
			<path fill="#FBB040" d="M320.075-281.906c13.916-16.807,38.395-24.295,59.305-25.129c3.213-0.128,3.226-5.129,0-5
				c-22.13,0.883-48.11,8.802-62.84,26.594C314.5-282.979,318.017-279.42,320.075-281.906L320.075-281.906z"/>
		</g>
	</g>
	<g>
		<g>
			<g>
				<path fill="#FBB040" d="M293.517-294.236c-11.407-24.733,2.63-53.806,26.647-64.682c2.934-1.328,0.39-5.636-2.523-4.316
					c-26.722,12.1-40.918,44.468-28.441,71.521C290.548-288.787,294.857-291.33,293.517-294.236L293.517-294.236z"/>
			</g>
		</g>
		<g>
			<g>
				<path fill="#FBB040" d="M303.703-310.455c-2.844-20.291,11.074-38.496,31.029-42.012c20.177-3.556,38.59,11.611,42.012,31.029
					c3.555,20.176-11.61,38.59-31.028,42.012C325.539-275.869,307.124-291.037,303.703-310.455c-0.559-3.171-5.377-1.822-4.821,1.33
					c3.856,21.885,23.979,37.115,46.098,34.807c21.865-2.282,37.841-21.979,37.112-43.599c-0.743-22.046-19.524-39.16-41.08-39.943
					c-22.132-0.804-40.285,17.011-42.556,38.4c-0.367,3.455-0.054,6.911,0.426,10.335
					C299.327-305.943,304.145-307.303,303.703-310.455z"/>
			</g>
		</g>
		<g>
			<g>
				<path fill="#FBB040" d="M321.951-348.507c10.431,4.099,20.825,12.371,27.51,21.697c9.931,13.855,10.088,30.666,4.765,46.357
					c-1.039,3.062,3.792,4.365,4.821,1.33c5.809-17.126,5.116-35.022-5.269-50.212c-7.216-10.553-18.583-19.312-30.498-23.995
					C320.276-354.51,318.986-349.673,321.951-348.507L321.951-348.507z"/>
			</g>
		</g>
		<g>
			<g>
				<path fill="#FBB040" d="M320.8-352.177c-4.291,13.706-3.931,29.795,1.266,43.149c6.025,15.48,19.269,25.49,34.501,31.057
					c3.036,1.108,4.332-3.725,1.329-4.822c-14.453-5.281-26.414-14.884-31.781-29.611c-4.333-11.892-4.277-26.359-0.495-38.442
					C326.587-353.933,321.76-355.242,320.8-352.177L320.8-352.177z"/>
			</g>
		</g>
		<g>
			<g>
				<path fill="#FBB040" d="M362.74-346.841c-13.915,16.808-38.395,24.295-59.305,25.129c-3.213,0.128-3.226,5.129,0,5
					c22.13-0.883,48.111-8.802,62.84-26.594C368.314-345.769,364.798-349.327,362.74-346.841L362.74-346.841z"/>
			</g>
		</g>
	</g>
</g>
<path fill="#00B8EE" d="M383.343-240.754c-0.172,0-0.353,0.009-0.532,0.031l-55.657,7.217l-32.67-5.125v-7.69
	c0,0,32.619,5.104,32.67,5.11l56.189-7.308l1.122-0.214c0.843-0.265,1.418-0.787,1.443-1.4c0.026-0.759-0.789-1.425-1.959-1.61
	l-35.22-5.52c-0.366-0.058-0.763-0.065-1.133-0.019l-56.205,7.288c-0.083,0.012-0.153,0.03-0.229,0.043
	c-0.061,0.011-0.121,0.018-0.178,0.03c-0.13,0.032-0.254,0.072-0.369,0.113c-0.019,0.005-0.038,0.009-0.054,0.018
	c-0.137,0.048-0.264,0.108-0.379,0.174c-0.038,0.021-0.063,0.043-0.102,0.064c-0.073,0.046-0.152,0.096-0.216,0.15
	c-0.039,0.029-0.073,0.063-0.108,0.094c-0.057,0.053-0.105,0.104-0.153,0.157c-0.028,0.037-0.054,0.073-0.076,0.11
	c-0.044,0.059-0.077,0.119-0.108,0.181c-0.009,0.024-0.025,0.043-0.032,0.065c-0.013,0.018-0.013,0.03-0.016,0.045
	c-0.02,0.063-0.032,0.129-0.042,0.191c-0.006,0.042-0.016,0.081-0.02,0.122c0,0.012-0.006,0.021-0.006,0.033v11.039
	c0,0.744,0.808,1.395,1.966,1.573l35.216,5.521c0.366,0.054,0.76,0.063,1.132,0.017l56.209-7.29c1.4-0.176,2.31-1.028,2.03-1.908
	c-0.165-0.511-0.7-0.913-1.393-1.128C384.464-240.577,383.881-240.783,383.343-240.754z"/>
<g>
	<path fill="#00B8EE" d="M384.464-230.987c0.843-0.261,1.418-0.785,1.443-1.398c0.026-0.759-0.789-1.424-1.959-1.612l-56.62,7.071
		c-0.366-0.059-0.767-0.062-1.136-0.017l-34.801-5.306c-0.083,0.013-0.153,0.03-0.229,0.044c-0.061,0.013-0.121,0.019-0.178,0.035
		c-0.13,0.03-0.254,0.067-0.369,0.112c-0.019,0.002-0.038,0.007-0.054,0.013c-0.137,0.053-0.264,0.109-0.379,0.176
		c-0.038,0.021-0.063,0.043-0.102,0.063c-0.073,0.049-0.152,0.097-0.216,0.151c-0.039,0.029-0.073,0.062-0.108,0.095
		c-0.057,0.052-0.105,0.103-0.153,0.154c-0.028,0.039-0.054,0.074-0.076,0.114c-0.044,0.056-0.077,0.114-0.108,0.179
		c-0.009,0.021-0.025,0.043-0.032,0.062c-0.013,0.021-0.013,0.033-0.016,0.049c-0.02,0.062-0.032,0.128-0.042,0.193
		c-0.006,0.039-0.016,0.078-0.02,0.117c0,0-0.006,0.025-0.006,0.037v11.039c0,0.744,0.808,1.391,1.966,1.572l11.872,1.867
		l0.016-3.365l-8.673-1.341v-7.693l32.74,4.944l56.119-7.139C383.343-230.77,384.164-230.874,384.464-230.987z M383.343-223.01
		c-0.172,0-0.353,0.015-0.532,0.033l-55.587,7.071l-6.622-0.878v3.332l5.883,0.931c0.369,0.057,0.76,0.062,1.132,0.014l56.209-7.287
		c1.403-0.174,2.31-1.029,2.03-1.909c-0.162-0.51-0.7-0.914-1.393-1.128C384.464-222.831,383.881-223.037,383.343-223.01z"/>
	<polygon fill="#00B8EE" points="306.454,-205.232 311.646,-207.261 316.838,-203.28 316.838,-220.143 306.454,-221.756 	"/>
</g>
<path fill="#FBB040" d="M338.862-255.404c0,1.696-1.095,3.07-2.446,3.07l0,0c-1.35,0-2.445-1.374-2.445-3.07v-6.99
	c0-1.695,1.095-3.07,2.445-3.07l0,0c1.351,0,2.446,1.375,2.446,3.07V-255.404z"/>
<path fill="none" stroke="#F19C30" stroke-miterlimit="10" d="M598.566-317.441"/>
<g>
	<g>
		<g>
			<path fill="#8DC63F" d="M658.667-274.334c-23.702,12.034-54.851,3.868-66.893-20.368c-1.435-2.888-5.747-0.354-4.317,2.523
				c13.294,26.757,47.748,35.355,73.733,22.163C664.066-271.477,661.535-275.789,658.667-274.334L658.667-274.334z"/>
		</g>
	</g>
	<g>
		<g>
			<path fill="#8DC63F" d="M617.839-283.401c13.915-16.807,38.396-24.294,59.306-25.129c3.213-0.128,3.226-5.129,0-5
				c-22.13,0.883-48.11,8.802-62.841,26.594C612.264-284.474,615.781-280.915,617.839-283.401L617.839-283.401z"/>
		</g>
	</g>
	<g>
		<g>
			<g>
				<path fill="#8DC63F" d="M591.281-295.731c-11.469-24.869,2.715-53.622,26.647-64.681c2.925-1.352,0.383-5.661-2.523-4.318
					c-26.627,12.306-40.987,44.317-28.441,71.522C588.312-290.282,592.621-292.824,591.281-295.731L591.281-295.731z"/>
			</g>
		</g>
		<g>
			<g>
				<path fill="#8DC63F" d="M601.468-311.95c-2.845-20.29,11.072-38.496,31.027-42.012c20.177-3.556,38.59,11.611,42.012,31.029
					c3.557,20.176-11.61,38.59-31.028,42.012C623.303-277.364,604.888-292.532,601.468-311.95c-0.56-3.171-5.377-1.823-4.822,1.33
					c3.855,21.886,23.978,37.115,46.097,34.807c21.866-2.282,37.841-21.979,37.112-43.599c-0.743-22.046-19.524-39.16-41.081-39.943
					c-22.132-0.804-40.283,17.011-42.554,38.4c-0.367,3.455-0.054,6.911,0.426,10.335
					C597.092-307.438,601.909-308.798,601.468-311.95z"/>
			</g>
		</g>
		<g>
			<g>
				<path fill="#8DC63F" d="M619.715-350.002c10.432,4.099,20.825,12.371,27.51,21.697c9.931,13.855,10.088,30.667,4.765,46.357
					c-1.038,3.062,3.792,4.365,4.822,1.33c5.809-17.126,5.116-35.022-5.27-50.211c-7.216-10.553-18.582-19.313-30.497-23.996
					C618.04-356.005,616.75-351.168,619.715-350.002L619.715-350.002z"/>
			</g>
		</g>
		<g>
			<g>
				<path fill="#8DC63F" d="M618.563-353.672c-4.29,13.706-3.931,29.795,1.267,43.149c6.023,15.48,19.269,25.49,34.501,31.057
					c3.036,1.108,4.332-3.725,1.33-4.822c-14.454-5.28-26.415-14.884-31.781-29.611c-4.333-11.892-4.277-26.359-0.494-38.442
					C624.352-355.428,619.523-356.737,618.563-353.672L618.563-353.672z"/>
			</g>
		</g>
		<g>
			<g>
				<path fill="#8DC63F" d="M660.504-348.336c-13.915,16.808-38.396,24.295-59.306,25.129c-3.213,0.128-3.226,5.129,0,5
					c22.131-0.883,48.111-8.802,62.841-26.594C666.079-347.264,662.562-350.822,660.504-348.336L660.504-348.336z"/>
			</g>
		</g>
	</g>
</g>
<path fill="#00B8EE" d="M681.106-242.248c-0.172,0-0.353,0.008-0.531,0.03l-55.657,7.217l-32.67-5.124v-7.691
	c0,0,32.619,5.104,32.67,5.11l56.188-7.308l1.122-0.214c0.843-0.265,1.418-0.787,1.443-1.4c0.025-0.759-0.789-1.425-1.959-1.61
	l-35.22-5.52c-0.366-0.058-0.764-0.065-1.134-0.018l-56.205,7.287c-0.082,0.013-0.153,0.03-0.229,0.043
	c-0.06,0.011-0.121,0.018-0.178,0.031c-0.131,0.031-0.255,0.071-0.369,0.112c-0.02,0.005-0.038,0.009-0.055,0.018
	c-0.136,0.048-0.264,0.108-0.378,0.175c-0.039,0.021-0.064,0.043-0.102,0.064c-0.073,0.045-0.153,0.096-0.216,0.149
	c-0.039,0.029-0.074,0.063-0.109,0.094c-0.057,0.053-0.105,0.104-0.153,0.157c-0.029,0.037-0.053,0.073-0.076,0.11
	c-0.044,0.059-0.077,0.12-0.109,0.181c-0.009,0.024-0.025,0.043-0.032,0.065c-0.013,0.018-0.013,0.03-0.016,0.045
	c-0.019,0.063-0.031,0.129-0.042,0.192c-0.006,0.041-0.016,0.08-0.019,0.121c0,0.012-0.006,0.021-0.006,0.033v11.039
	c0,0.744,0.808,1.395,1.966,1.573l35.215,5.521c0.366,0.055,0.761,0.063,1.134,0.017l56.208-7.29c1.4-0.176,2.31-1.028,2.03-1.907
	c-0.165-0.511-0.7-0.914-1.393-1.129C682.229-242.072,681.646-242.278,681.106-242.248z"/>
<g>
	<path fill="#00B8EE" d="M682.229-232.482c0.843-0.261,1.418-0.785,1.443-1.398c0.025-0.759-0.789-1.424-1.959-1.612l-56.62,7.071
		c-0.365-0.059-0.767-0.062-1.136-0.017l-34.802-5.306c-0.082,0.013-0.153,0.03-0.229,0.044c-0.06,0.013-0.121,0.019-0.178,0.035
		c-0.131,0.03-0.255,0.067-0.369,0.112c-0.02,0.002-0.038,0.008-0.055,0.013c-0.136,0.053-0.264,0.109-0.378,0.177
		c-0.039,0.02-0.064,0.042-0.102,0.062c-0.073,0.049-0.153,0.097-0.216,0.151c-0.039,0.029-0.074,0.062-0.109,0.095
		c-0.057,0.053-0.105,0.103-0.153,0.154c-0.029,0.04-0.053,0.074-0.076,0.114c-0.044,0.056-0.077,0.114-0.109,0.18
		c-0.009,0.02-0.025,0.042-0.032,0.062c-0.013,0.02-0.013,0.032-0.016,0.048c-0.019,0.062-0.031,0.128-0.042,0.193
		c-0.006,0.039-0.016,0.078-0.019,0.117c0,0-0.006,0.025-0.006,0.037v11.039c0,0.744,0.808,1.392,1.966,1.573l11.871,1.866
		l0.016-3.365l-8.673-1.341v-7.693l32.739,4.944l56.119-7.139C681.106-232.265,681.928-232.369,682.229-232.482z M681.106-224.505
		c-0.172,0-0.353,0.015-0.531,0.033l-55.588,7.071l-6.62-0.878v3.332l5.882,0.931c0.369,0.057,0.761,0.062,1.134,0.014l56.208-7.287
		c1.403-0.174,2.31-1.029,2.03-1.909c-0.162-0.51-0.7-0.913-1.393-1.128C682.229-224.326,681.646-224.531,681.106-224.505z"/>
	<polygon fill="#8DC63F" points="604.218,-206.728 609.41,-208.756 614.603,-204.775 614.603,-221.638 604.218,-223.251 	"/>
</g>
<path fill="#8DC63F" d="M636.626-256.898c0,1.695-1.095,3.069-2.446,3.069l0,0c-1.35,0-2.444-1.374-2.444-3.069v-6.991
	c0-1.695,1.095-3.07,2.444-3.07l0,0c1.352,0,2.446,1.375,2.446,3.07V-256.898z"/>
<path fill="none" stroke="#27AAE1" stroke-miterlimit="10" d="M451.383-312.177"/>
<g>
	<g>
		<g>
			<path fill="#8FD3CD" d="M511.483-269.068c-23.684,12.07-54.864,3.84-66.893-20.369c-1.435-2.888-5.747-0.354-4.317,2.523
				c13.279,26.727,47.768,35.396,73.733,22.162C516.88-266.216,514.35-270.529,511.483-269.068L511.483-269.068z"/>
		</g>
	</g>
	<g>
		<g>
			<path fill="#8FD3CD" d="M470.656-278.137c13.916-16.807,38.396-24.295,59.306-25.129c3.213-0.128,3.226-5.129,0-5
				c-22.13,0.883-48.111,8.802-62.841,26.594C465.081-279.209,468.598-275.65,470.656-278.137L470.656-278.137z"/>
		</g>
	</g>
	<g>
		<g>
			<g>
				<path fill="#8FD3CD" d="M444.098-290.467c-11.458-24.844,2.699-53.656,26.647-64.682c2.926-1.347,0.384-5.655-2.523-4.316
					c-26.645,12.266-40.975,44.345-28.441,71.521C441.129-285.018,445.438-287.561,444.098-290.467L444.098-290.467z"/>
			</g>
		</g>
		<g>
			<g>
				<path fill="#8FD3CD" d="M454.283-306.686c-2.844-20.291,11.074-38.496,31.029-42.012c20.177-3.556,38.59,11.611,42.012,31.029
					c3.555,20.176-11.609,38.59-31.028,42.012C476.119-272.1,457.705-287.268,454.283-306.686c-0.559-3.171-5.377-1.822-4.821,1.33
					c3.856,21.885,23.979,37.115,46.098,34.807c21.866-2.282,37.841-21.979,37.112-43.599c-0.744-22.046-19.524-39.16-41.08-39.943
					c-22.132-0.804-40.285,17.011-42.556,38.4c-0.367,3.455-0.054,6.911,0.426,10.335
					C449.908-302.174,454.725-303.533,454.283-306.686z"/>
			</g>
		</g>
		<g>
			<g>
				<path fill="#8FD3CD" d="M472.532-344.737c10.431,4.099,20.825,12.372,27.51,21.697c9.931,13.855,10.088,30.667,4.765,46.357
					c-1.039,3.062,3.792,4.365,4.821,1.33c5.81-17.126,5.117-35.022-5.269-50.211c-7.216-10.553-18.582-19.313-30.498-23.996
					C470.856-350.74,469.566-345.903,472.532-344.737L472.532-344.737z"/>
			</g>
		</g>
		<g>
			<g>
				<path fill="#8FD3CD" d="M471.38-348.407c-4.291,13.706-3.931,29.795,1.266,43.149c6.024,15.48,19.268,25.49,34.501,31.057
					c3.036,1.108,4.332-3.725,1.329-4.822c-14.453-5.28-26.414-14.884-31.781-29.611c-4.333-11.892-4.277-26.359-0.495-38.442
					C477.167-350.163,472.34-351.473,471.38-348.407L471.38-348.407z"/>
			</g>
		</g>
		<g>
			<g>
				<path fill="#8FD3CD" d="M513.32-343.07c-13.915,16.807-38.395,24.294-59.305,25.128c-3.213,0.128-3.226,5.129,0,5
					c22.13-0.883,48.11-8.801,62.84-26.593C518.895-341.998,515.378-345.557,513.32-343.07L513.32-343.07z"/>
			</g>
		</g>
	</g>
</g>
<path fill="#53B78F" d="M533.923-236.983c-0.171,0-0.352,0.008-0.531,0.03l-55.658,7.217l-32.67-5.125v-7.69
	c0,0,32.62,5.104,32.67,5.11l56.188-7.308l1.122-0.214c0.843-0.265,1.419-0.787,1.444-1.4c0.025-0.759-0.789-1.425-1.958-1.609
	l-35.22-5.521c-0.366-0.058-0.764-0.065-1.133-0.018l-56.205,7.287c-0.083,0.013-0.153,0.03-0.229,0.043
	c-0.061,0.011-0.121,0.018-0.178,0.031c-0.13,0.032-0.254,0.071-0.369,0.112c-0.019,0.005-0.038,0.009-0.054,0.018
	c-0.137,0.048-0.264,0.108-0.379,0.175c-0.038,0.021-0.063,0.043-0.102,0.063c-0.073,0.046-0.152,0.097-0.216,0.15
	c-0.038,0.029-0.073,0.064-0.108,0.094c-0.057,0.053-0.105,0.104-0.153,0.157c-0.028,0.037-0.054,0.073-0.076,0.11
	c-0.044,0.059-0.076,0.12-0.108,0.181c-0.009,0.024-0.025,0.044-0.032,0.065c-0.013,0.018-0.013,0.03-0.016,0.045
	c-0.02,0.064-0.032,0.129-0.042,0.192c-0.006,0.041-0.016,0.08-0.02,0.121c0,0.012-0.006,0.021-0.006,0.033v11.039
	c0,0.744,0.809,1.395,1.966,1.573l35.216,5.521c0.366,0.055,0.76,0.063,1.132,0.017l56.209-7.29c1.399-0.176,2.309-1.028,2.03-1.907
	c-0.166-0.511-0.701-0.914-1.394-1.129C535.044-236.808,534.462-237.014,533.923-236.983z"/>
<g>
	<path fill="#53B78F" d="M535.044-227.218c0.843-0.261,1.419-0.784,1.444-1.398c0.025-0.759-0.789-1.424-1.958-1.612l-56.62,7.071
		c-0.366-0.059-0.767-0.062-1.136-0.017l-34.801-5.306c-0.083,0.013-0.153,0.03-0.229,0.044c-0.061,0.014-0.121,0.02-0.178,0.035
		c-0.13,0.03-0.254,0.067-0.369,0.112c-0.019,0.003-0.038,0.007-0.054,0.013c-0.137,0.053-0.264,0.109-0.379,0.177
		c-0.038,0.02-0.063,0.042-0.102,0.062c-0.073,0.049-0.152,0.097-0.216,0.151c-0.038,0.029-0.073,0.062-0.108,0.095
		c-0.057,0.052-0.105,0.103-0.153,0.154c-0.028,0.04-0.054,0.075-0.076,0.114c-0.044,0.056-0.076,0.114-0.108,0.18
		c-0.009,0.02-0.025,0.042-0.032,0.061c-0.013,0.021-0.013,0.033-0.016,0.049c-0.02,0.062-0.032,0.129-0.042,0.193
		c-0.006,0.039-0.016,0.078-0.02,0.117c0,0-0.006,0.025-0.006,0.037v11.039c0,0.744,0.809,1.392,1.966,1.573l11.872,1.866
		l0.016-3.365l-8.673-1.34v-7.694l32.74,4.944L533.923-227C533.923-227,534.744-227.104,535.044-227.218z M533.923-219.24
		c-0.171,0-0.352,0.015-0.531,0.033l-55.587,7.071l-6.622-0.878v3.332l5.883,0.932c0.369,0.056,0.76,0.061,1.132,0.013l56.209-7.287
		c1.403-0.174,2.309-1.028,2.03-1.909c-0.163-0.51-0.701-0.914-1.394-1.127C535.044-219.061,534.462-219.268,533.923-219.24z"/>
	<polygon fill="#8FD3CD" points="457.034,-201.463 462.227,-203.491 467.419,-199.511 467.419,-216.373 457.034,-217.986 	"/>
</g>
<path fill="#8FD3CD" d="M489.442-251.634c0,1.695-1.095,3.069-2.445,3.069l0,0c-1.351,0-2.445-1.374-2.445-3.069v-6.991
	c0-1.695,1.095-3.07,2.445-3.07l0,0c1.351,0,2.445,1.375,2.445,3.07V-251.634z"/>
<g>
	<g>
		<path fill="#27AAE1" d="M604.362-489.894c-2.808-20.037,11.021-37.934,30.68-41.396c19.925-3.51,38.025,11.55,41.396,30.68
			c3.511,19.924-11.551,38.026-30.679,41.397C625.835-455.701,607.732-470.766,604.362-489.894c-0.67-3.806-6.452-2.188-5.785,1.596
			c3.891,22.084,24.259,37.503,46.58,35.174c22.129-2.31,38.351-22.187,37.611-44.099c-0.753-22.323-19.746-39.65-41.58-40.442
			c-22.424-0.813-40.755,17.248-43.055,38.899c-0.372,3.502-0.043,6.998,0.443,10.468
			C599.112-484.479,604.893-486.11,604.362-489.894z"/>
	</g>
</g>
<g>
	<g>
		<path fill="#27AAE1" d="M660.828-452.576c-23.474,11.918-54.293,3.796-66.208-20.189c-1.722-3.465-6.896-0.425-5.181,3.029
			c13.418,27.009,48.205,35.649,74.418,22.342C667.308-449.146,664.271-454.323,660.828-452.576L660.828-452.576z"/>
	</g>
</g>
<g>
	<g>
		<path fill="#27AAE1" d="M621.996-527.33c9.832,3.863,20.625,12.279,27.211,21.468c9.859,13.756,9.998,30.395,4.715,45.972
			c-1.247,3.675,4.55,5.238,5.785,1.596c5.848-17.24,5.135-35.307-5.319-50.596c-7.296-10.67-18.75-19.492-30.796-24.225
			C619.986-534.532,618.438-528.729,621.996-527.33L621.996-527.33z"/>
	</g>
</g>
<g>
	<g>
		<path fill="#27AAE1" d="M620.496-531.615c-4.314,13.782-3.96,29.987,1.266,43.416c6.093,15.656,19.438,25.772,34.851,31.404
			c3.643,1.331,5.199-4.469,1.596-5.785c-14.275-5.217-26.13-14.712-31.432-29.262c-4.307-11.816-4.254-26.172-0.495-38.178
			C627.44-533.723,621.647-535.294,620.496-531.615L620.496-531.615z"/>
	</g>
</g>
<path fill="none" stroke="#27AAE1" stroke-miterlimit="10" d="M600.98-495.252"/>
<g>
	<g>
		<path fill="#27AAE1" d="M620.253-461.211c13.915-16.808,38.395-24.295,59.305-25.129c3.213-0.128,3.226-5.129,0-5
			c-22.13,0.883-48.11,8.802-62.84,26.594C614.678-462.283,618.195-458.725,620.253-461.211L620.253-461.211z"/>
	</g>
</g>
<g>
	<g>
		<path fill="#27AAE1" d="M662.918-526.146c-13.915,16.807-38.396,24.294-59.306,25.129c-3.213,0.128-3.226,5.129,0,5
			c22.13-0.883,48.11-8.802,62.841-26.594C668.493-525.073,664.976-528.632,662.918-526.146L662.918-526.146z"/>
	</g>
</g>
<path fill="#53B78F" d="M683.521-420.059c-0.171,0-0.353,0.008-0.531,0.03l-55.657,7.217l-32.67-5.124v-7.691
	c0,0,32.62,5.104,32.67,5.111l56.188-7.309l1.121-0.213c0.843-0.266,1.419-0.788,1.444-1.401c0.025-0.759-0.79-1.425-1.959-1.609
	l-35.22-5.521c-0.366-0.057-0.765-0.065-1.134-0.018l-56.204,7.287c-0.083,0.013-0.153,0.03-0.229,0.043
	c-0.06,0.011-0.122,0.019-0.179,0.031c-0.13,0.032-0.254,0.071-0.369,0.112c-0.019,0.005-0.038,0.009-0.054,0.018
	c-0.137,0.048-0.264,0.108-0.379,0.175c-0.038,0.021-0.063,0.043-0.102,0.064c-0.073,0.046-0.152,0.096-0.216,0.15
	c-0.038,0.028-0.074,0.063-0.109,0.093c-0.057,0.053-0.104,0.104-0.152,0.157c-0.028,0.037-0.054,0.073-0.076,0.11
	c-0.045,0.06-0.077,0.12-0.109,0.181c-0.009,0.024-0.026,0.044-0.032,0.065c-0.012,0.018-0.012,0.03-0.015,0.046
	c-0.019,0.063-0.032,0.128-0.041,0.191c-0.007,0.041-0.017,0.081-0.021,0.121c0,0.012-0.005,0.021-0.005,0.033v11.039
	c0,0.744,0.808,1.395,1.966,1.573l35.216,5.521c0.366,0.055,0.76,0.063,1.132,0.017l56.208-7.29c1.4-0.176,2.311-1.028,2.03-1.907
	c-0.164-0.511-0.699-0.914-1.393-1.129C684.642-419.883,684.06-420.089,683.521-420.059z"/>
<g>
	<path fill="#53B78F" d="M684.642-410.293c0.843-0.261,1.419-0.784,1.444-1.398c0.025-0.759-0.79-1.424-1.959-1.612l-56.62,7.071
		c-0.366-0.059-0.768-0.062-1.137-0.017l-34.801-5.306c-0.083,0.013-0.153,0.03-0.229,0.045c-0.06,0.013-0.122,0.019-0.179,0.034
		c-0.13,0.03-0.254,0.067-0.369,0.112c-0.019,0.003-0.038,0.008-0.054,0.014c-0.137,0.052-0.264,0.108-0.379,0.176
		c-0.038,0.02-0.063,0.042-0.102,0.062c-0.073,0.049-0.152,0.097-0.216,0.151c-0.038,0.03-0.074,0.062-0.109,0.095
		c-0.057,0.053-0.104,0.103-0.152,0.154c-0.028,0.04-0.054,0.075-0.076,0.114c-0.045,0.056-0.077,0.114-0.109,0.18
		c-0.009,0.02-0.026,0.042-0.032,0.062c-0.012,0.02-0.012,0.032-0.015,0.048c-0.019,0.062-0.032,0.129-0.041,0.193
		c-0.007,0.04-0.017,0.078-0.021,0.117c0,0-0.005,0.025-0.005,0.038v11.038c0,0.744,0.808,1.392,1.966,1.573l11.871,1.866
		l0.016-3.365l-8.673-1.34v-7.694l32.741,4.944l56.118-7.138C683.521-410.074,684.341-410.179,684.642-410.293z M683.521-402.314
		c-0.171,0-0.353,0.014-0.531,0.032l-55.587,7.071l-6.623-0.878v3.332l5.885,0.932c0.368,0.056,0.76,0.062,1.132,0.013l56.208-7.287
		c1.404-0.174,2.311-1.028,2.03-1.909c-0.162-0.509-0.699-0.913-1.393-1.127C684.642-402.136,684.06-402.342,683.521-402.314z"/>
	<polygon fill="#53B78F" points="606.632,-384.538 611.824,-386.566 617.017,-382.586 617.017,-399.448 606.632,-401.061 	"/>
</g>
<path fill="#2A74AA" d="M348.24-438.479c0,1.696-1.095,3.07-2.445,3.07l0,0c-1.351,0-2.445-1.374-2.445-3.07v-6.991
	c0-1.695,1.095-3.069,2.445-3.069l0,0c1.351,0,2.445,1.374,2.445,3.069V-438.479z"/>
<path fill="#27AAE1" d="M639.04-434.709c0,1.695-1.096,3.07-2.445,3.07l0,0c-1.351,0-2.445-1.375-2.445-3.07v-6.991
	c0-1.695,1.095-3.069,2.445-3.069l0,0c1.35,0,2.445,1.374,2.445,3.069V-434.709z"/>
<path fill="none" stroke="#F19C30" stroke-miterlimit="10" d="M741.31-312.79"/>
<g>
	<g>
		<g>
			<path fill="#F26522" d="M801.41-269.682c-23.702,12.033-54.851,3.867-66.893-20.369c-1.436-2.888-5.748-0.354-4.318,2.523
				c13.295,26.757,47.749,35.355,73.734,22.162C806.81-266.824,804.278-271.138,801.41-269.682L801.41-269.682z"/>
		</g>
	</g>
	<g>
		<g>
			<path fill="#F26522" d="M760.582-278.75c13.915-16.807,38.396-24.295,59.306-25.129c3.213-0.128,3.226-5.129,0-5
				c-22.13,0.883-48.11,8.802-62.841,26.594C755.007-279.822,758.524-276.264,760.582-278.75L760.582-278.75z"/>
		</g>
	</g>
	<g>
		<g>
			<g>
				<path fill="#F26522" d="M734.023-291.08c-11.469-24.869,2.716-53.622,26.647-64.682c2.925-1.351,0.383-5.66-2.523-4.316
					c-26.627,12.305-40.987,44.316-28.44,71.521C731.056-285.631,735.364-288.174,734.023-291.08L734.023-291.08z"/>
			</g>
		</g>
		<g>
			<g>
				<path fill="#F26522" d="M744.211-307.299c-2.845-20.29,11.072-38.496,31.027-42.012c20.177-3.556,38.59,11.611,42.012,31.029
					c3.557,20.176-11.61,38.59-31.028,42.012C766.046-272.713,747.631-287.881,744.211-307.299c-0.56-3.171-5.377-1.822-4.822,1.33
					c3.855,21.886,23.979,37.115,46.098,34.807c21.866-2.282,37.841-21.979,37.112-43.599c-0.743-22.046-19.524-39.16-41.081-39.943
					c-22.132-0.804-40.283,17.011-42.555,38.4c-0.366,3.455-0.054,6.911,0.426,10.335
					C739.835-302.787,744.652-304.146,744.211-307.299z"/>
			</g>
		</g>
		<g>
			<g>
				<path fill="#F26522" d="M762.458-345.351c10.432,4.099,20.825,12.372,27.51,21.697c9.931,13.855,10.088,30.667,4.765,46.357
					c-1.038,3.062,3.792,4.365,4.822,1.33c5.809-17.126,5.115-35.022-5.27-50.211c-7.216-10.553-18.582-19.313-30.497-23.996
					C760.783-351.354,759.493-346.517,762.458-345.351L762.458-345.351z"/>
			</g>
		</g>
		<g>
			<g>
				<path fill="#F26522" d="M761.307-349.021c-4.29,13.706-3.931,29.795,1.267,43.149c6.023,15.48,19.269,25.49,34.501,31.057
					c3.036,1.108,4.332-3.725,1.33-4.822c-14.454-5.28-26.415-14.884-31.781-29.611c-4.333-11.892-4.277-26.359-0.494-38.442
					C767.095-350.776,762.267-352.086,761.307-349.021L761.307-349.021z"/>
			</g>
		</g>
		<g>
			<g>
				<path fill="#F26522" d="M803.247-343.685c-13.915,16.808-38.396,24.295-59.306,25.129c-3.213,0.128-3.226,5.129,0,5
					c22.131-0.883,48.111-8.802,62.841-26.594C808.822-342.612,805.305-346.171,803.247-343.685L803.247-343.685z"/>
			</g>
		</g>
	</g>
</g>
<path fill="#00B8EE" d="M823.85-237.597c-0.172,0-0.353,0.008-0.531,0.03l-55.657,7.217l-32.67-5.124v-7.691
	c0,0,32.619,5.104,32.67,5.11l56.188-7.308l1.122-0.214c0.843-0.265,1.418-0.787,1.443-1.4c0.025-0.759-0.789-1.425-1.959-1.61
	l-35.22-5.52c-0.366-0.058-0.764-0.065-1.134-0.018l-56.205,7.287c-0.082,0.013-0.152,0.03-0.229,0.043
	c-0.061,0.011-0.121,0.018-0.178,0.031c-0.131,0.031-0.255,0.071-0.369,0.112c-0.02,0.005-0.038,0.009-0.055,0.018
	c-0.137,0.048-0.264,0.108-0.378,0.175c-0.039,0.021-0.063,0.043-0.102,0.064c-0.073,0.045-0.153,0.096-0.216,0.149
	c-0.039,0.029-0.074,0.063-0.109,0.094c-0.057,0.053-0.105,0.104-0.152,0.157c-0.029,0.037-0.054,0.073-0.076,0.11
	c-0.045,0.059-0.076,0.12-0.109,0.181c-0.008,0.024-0.024,0.043-0.031,0.065c-0.013,0.018-0.013,0.03-0.016,0.045
	c-0.02,0.063-0.031,0.129-0.041,0.192c-0.007,0.041-0.016,0.08-0.02,0.121c0,0.012-0.006,0.021-0.006,0.033v11.039
	c0,0.744,0.808,1.395,1.966,1.573l35.215,5.521c0.366,0.055,0.761,0.063,1.134,0.017l56.208-7.29c1.4-0.176,2.31-1.028,2.03-1.907
	c-0.165-0.511-0.7-0.914-1.393-1.129C824.972-237.421,824.389-237.627,823.85-237.597z"/>
<g>
	<path fill="#00B8EE" d="M824.972-227.831c0.843-0.261,1.418-0.785,1.443-1.398c0.025-0.759-0.789-1.424-1.959-1.612l-56.62,7.071
		c-0.365-0.059-0.767-0.062-1.136-0.017l-34.803-5.306c-0.082,0.013-0.152,0.03-0.229,0.044c-0.061,0.013-0.121,0.019-0.178,0.035
		c-0.131,0.03-0.255,0.067-0.369,0.112c-0.02,0.002-0.038,0.008-0.055,0.013c-0.137,0.053-0.264,0.109-0.378,0.177
		c-0.039,0.02-0.063,0.042-0.102,0.062c-0.073,0.049-0.153,0.097-0.216,0.151c-0.039,0.029-0.074,0.062-0.109,0.095
		c-0.057,0.053-0.105,0.103-0.152,0.154c-0.029,0.04-0.054,0.074-0.076,0.114c-0.045,0.056-0.076,0.114-0.109,0.18
		c-0.008,0.02-0.024,0.042-0.031,0.062c-0.013,0.02-0.013,0.032-0.016,0.048c-0.02,0.062-0.031,0.128-0.041,0.193
		c-0.007,0.039-0.016,0.078-0.02,0.117c0,0-0.006,0.025-0.006,0.037v11.039c0,0.744,0.808,1.392,1.966,1.573l11.871,1.866
		l0.016-3.365l-8.673-1.341v-7.693l32.739,4.944l56.119-7.139C823.85-227.613,824.671-227.718,824.972-227.831z M823.85-219.854
		c-0.172,0-0.353,0.015-0.531,0.033l-55.588,7.071l-6.62-0.878v3.332l5.882,0.931c0.369,0.057,0.761,0.062,1.134,0.014l56.208-7.287
		c1.403-0.174,2.31-1.029,2.03-1.909c-0.162-0.51-0.7-0.913-1.393-1.128C824.972-219.675,824.389-219.88,823.85-219.854z"/>
	<polygon fill="#F26522" points="746.961,-202.076 752.153,-204.104 757.346,-200.124 757.346,-216.986 746.961,-218.6 	"/>
</g>
<path fill="#F26522" d="M779.369-252.247c0,1.695-1.095,3.069-2.446,3.069l0,0c-1.35,0-2.444-1.374-2.444-3.069v-6.991
	c0-1.695,1.095-3.07,2.444-3.07l0,0c1.352,0,2.446,1.375,2.446,3.07V-252.247z"/>
<g>
	<g>
		<path fill="#2A74AA" d="M28.113,154.982c-16.247-34.864,3.674-76.258,37.61-91.542c3.523-1.587,0.469-6.757-3.028-5.182
			C25.519,75.004,5.391,120.37,22.932,158.012C24.565,161.516,29.736,158.467,28.113,154.982L28.113,154.982z"/>
	</g>
</g>
<g>
	<g>
		<path fill="#2A74AA" d="M42.368,132.081c-3.452-23.737,9.801-47.169,31.986-56.354c22.132-9.162,48.108-1.381,62.2,17.743
			c14.264,19.357,12.727,46.564-2.584,64.779c-15.481,18.418-42.317,23.286-63.617,12.629
			C55.214,163.304,45.188,148.585,42.368,132.081c-0.651-3.808-6.433-2.188-5.786,1.596c3.713,21.729,19.105,39.263,39.955,46.204
			c21.033,7.002,44.693,0.272,59.921-15.444c15.363-15.855,19.833-39.738,12.473-60.333c-7.17-20.063-25.939-34.987-47.024-37.699
			c-38.778-4.986-70.88,29.066-65.325,67.272C37.137,137.493,42.918,135.864,42.368,132.081z"/>
	</g>
</g>
<g>
	<g>
		<path fill="#2A74AA" d="M123.458,185.219c-33.279,17.236-77.856,5.387-94.653-28.791c-1.707-3.472-6.88-0.43-5.181,3.029
			c18.278,37.191,66.865,49.586,102.862,30.943C129.923,188.62,126.888,183.442,123.458,185.219L123.458,185.219z"/>
	</g>
</g>
<g>
	<g>
		<path fill="#2A74AA" d="M68.627,78.008c14.439,5.646,29.028,17.116,38.417,29.969c14.389,19.697,14.985,43.748,7.27,66.244
			c-1.258,3.671,4.539,5.232,5.786,1.596c8.28-24.145,7.115-49.65-7.875-70.868c-10.114-14.316-25.627-26.323-42.003-32.726
			C66.614,70.812,65.065,76.615,68.627,78.008L68.627,78.008z"/>
	</g>
</g>
<g>
	<g>
		<path fill="#2A74AA" d="M67.367,73.482c-5.941,18.861-5.518,41.139,1.48,59.578c8.308,21.892,26.868,36.226,48.399,44.018
			c3.647,1.32,5.204-4.479,1.595-5.785c-20.017-7.244-36.904-20.582-44.601-40.862c-6.477-17.067-6.574-37.932-1.087-55.353
			C74.318,71.377,68.525,69.806,67.367,73.482L67.367,73.482z"/>
	</g>
</g>
<path fill="none" stroke="#2A74AA" stroke-miterlimit="10" d="M38.788,124.233"/>
<g>
	<g>
		<path fill="#2A74AA" d="M65.142,171.328c5.577-6.754,13.072-12.183,20.406-16.822c19.018-12.029,41.23-17.928,63.604-18.769
			c3.214-0.121,3.226-5.121,0-5c-23.024,0.865-45.542,6.904-65.28,18.926c-7.992,4.866-16.252,10.847-22.265,18.13
			C59.57,170.259,63.087,173.816,65.142,171.328L65.142,171.328z"/>
	</g>
</g>
<g>
	<g>
		<path fill="#2A74AA" d="M126.495,81.558c-5.577,6.754-13.072,12.183-20.407,16.821c-19.018,12.029-41.23,17.928-63.604,18.769
			c-3.214,0.121-3.226,5.121,0,5c23.024-0.865,45.542-6.904,65.28-18.925c7.991-4.867,16.251-10.847,22.265-18.13
			C132.066,82.627,128.549,79.069,126.495,81.558L126.495,81.558z"/>
	</g>
</g>
<path fill="#972F20" d="M154.716,229.844c-0.24,0-0.495,0.011-0.746,0.042l-78.172,10.136l-45.886-7.196v-10.803
	c0,0,45.815,7.171,45.886,7.179l78.918-10.264l1.575-0.3c1.184-0.374,1.993-1.108,2.028-1.967c0.036-1.068-1.108-2.004-2.751-2.263
	l-49.466-7.754c-0.515-0.078-1.073-0.089-1.592-0.023l-78.94,10.234c-0.117,0.019-0.215,0.042-0.322,0.061
	c-0.085,0.015-0.169,0.025-0.25,0.044c-0.184,0.045-0.358,0.1-0.518,0.157c-0.027,0.007-0.054,0.012-0.077,0.025
	c-0.192,0.066-0.37,0.152-0.531,0.244c-0.054,0.03-0.089,0.062-0.144,0.092c-0.103,0.064-0.213,0.134-0.303,0.21
	c-0.053,0.04-0.103,0.09-0.152,0.132c-0.08,0.072-0.147,0.147-0.215,0.219c-0.04,0.053-0.075,0.104-0.106,0.156
	c-0.064,0.084-0.107,0.168-0.153,0.253c-0.013,0.034-0.035,0.062-0.044,0.093c-0.018,0.024-0.018,0.042-0.022,0.064
	c-0.027,0.09-0.044,0.179-0.058,0.27c-0.008,0.057-0.021,0.112-0.027,0.17c0,0.017-0.009,0.027-0.009,0.047v15.504
	c0,1.045,1.136,1.959,2.762,2.21l49.46,7.755c0.515,0.077,1.068,0.088,1.59,0.022l78.946-10.238
	c1.966-0.247,3.245-1.444,2.851-2.677c-0.231-0.72-0.983-1.284-1.957-1.586C156.291,230.092,155.473,229.8,154.716,229.844z"/>
<g>
	<path fill="#972F20" d="M154.621,244.478c1.184-0.367,1.992-1.102,2.028-1.964c0.036-1.065-1.108-2.002-2.751-2.264l-79.524,9.933
		c-0.513-0.084-1.076-0.089-1.595-0.025l-48.879-7.45c-0.116,0.017-0.214,0.042-0.322,0.061c-0.084,0.018-0.169,0.025-0.25,0.05
		c-0.184,0.043-0.357,0.095-0.518,0.157c-0.026,0.005-0.054,0.01-0.077,0.019c-0.191,0.073-0.37,0.153-0.532,0.248
		c-0.053,0.026-0.089,0.058-0.143,0.087c-0.103,0.068-0.213,0.137-0.303,0.211c-0.054,0.045-0.103,0.09-0.152,0.136
		c-0.081,0.072-0.148,0.143-0.216,0.217c-0.04,0.055-0.075,0.103-0.106,0.16c-0.063,0.077-0.107,0.16-0.152,0.252
		c-0.014,0.027-0.036,0.061-0.045,0.087c-0.018,0.028-0.018,0.045-0.022,0.064c-0.027,0.09-0.044,0.183-0.058,0.275
		c-0.008,0.055-0.021,0.109-0.027,0.164c0,0-0.009,0.034-0.009,0.053v15.503c0,1.046,1.135,1.955,2.761,2.209l16.673,2.623
		l0.023-4.727l-12.183-1.884v-10.805l45.984,6.944l78.82-10.026C153.046,244.785,154.198,244.638,154.621,244.478z M153.046,255.684
		c-0.241,0-0.496,0.019-0.747,0.046l-78.073,9.934l-9.3-1.234v4.68l8.263,1.308c0.518,0.079,1.068,0.086,1.591,0.02l78.946-10.235
		c1.971-0.245,3.244-1.445,2.851-2.683c-0.228-0.716-0.983-1.284-1.956-1.584C154.621,255.934,153.803,255.645,153.046,255.684z"/>
	<polygon fill="#8B5E3C" points="45.053,280.651 52.347,277.804 59.639,283.393 59.639,259.712 45.053,257.444 	"/>
</g>
<path fill="#2A74AA" d="M92.242,209.268c0,2.382-1.538,4.311-3.434,4.311l0,0c-1.897,0-3.435-1.929-3.435-4.311v-9.82
	c0-2.382,1.538-4.312,3.435-4.312l0,0c1.896,0,3.434,1.93,3.434,4.312V209.268z"/>
<rect x="196.975" y="83.451" fill="none" width="422" height="217.227"/>
<text transform="matrix(1 0 0 1 196.9727 151.4902)"><tspan x="0" y="0" fill="#53AF48" font-family="'Avenir-Light'" font-size="90">education </tspan><tspan x="0" y="90" fill="#53AF48" font-family="'Avenir-Light'" font-size="90">allocation</tspan></text>
</svg>
